#!OML:ASF G:\JayActor3\Patient Classification 1\Patient 1\Session 6\male.ASF
:FULLY-SPECIFIED
:DEGREES
2111
root 1.18957 16.7019 -1.37241 57.3797 -84.9493 -63.168
lowerback 7.57325 -1.87044 -2.99039
upperback -4.18726 -2.98119 -1.21179
thorax -8.60115 -1.33438 0.838819
lowerneck 8.4881 -4.7308 -1.01818
upperneck -3.24175 -6.74612 -4.98499
head -2.66341 -3.18937 -1.09436
rclavicle 2.14687e-014 1.43125e-014
rhumerus -46.6011 11.6557 -81.6371
rradius 34.7828
rwrist 3.44611
rhand -10.1443 -2.81959
rfingers 7.12502
rthumb 15.8447 -32.1913
lclavicle 2.14687e-014 1.43125e-014
lhumerus -46.5562 -16.3 80.9866
lradius 43.7865
lwrist 17.8635
lhand 16.6134 8.68659
lfingers 7.12502
lthumb 41.3681 33.4849
rfemur -28.1739 -9.80416 14.236
rtibia 63.1156
rfoot 2.22832 -19.4386
rtoes 10.394
lfemur 14.0669 14.5022 -14.8265
ltibia 7.95139e-015
lfoot -8.69256 6.29145
ltoes 3.23371
2112
root 1.17894 16.7034 -1.36045 56.5238 -84.8747 -62.3563
lowerback 7.56099 -1.86502 -3.06056
upperback -4.18499 -2.98408 -1.2414
thorax -8.58986 -1.33316 0.846614
lowerneck 8.40912 -4.80444 -1.14441
upperneck -3.13577 -6.84277 -4.87267
head -2.60432 -3.24303 -1.0345
rclavicle -2.98177e-015 -3.81667e-014
rhumerus -46.6521 11.6942 -81.6734
rradius 34.7276
rwrist 3.47791
rhand -10.1153 -2.80083
rfingers 7.12502
rthumb 15.8726 -32.1703
lclavicle -2.98177e-015 -3.81667e-014
lhumerus -46.5182 -16.3666 80.9029
lradius 43.7251
lwrist 17.8586
lhand 16.5745 8.65855
lfingers 7.12502
lthumb 41.3316 33.4686
rfemur -28.4939 -10.12 14.3786
rtibia 63.3149
rfoot 1.35633 -19.3729
rtoes 10.0772
lfemur 14.143 14.5095 -14.8044
ltibia 5.24792e-014
lfoot -8.73126 6.17406
ltoes 3.26844
2113
root 1.16744 16.7043 -1.34842 55.6552 -84.7871 -61.5303
lowerback 7.55296 -1.86113 -3.11254
upperback -4.19146 -2.98733 -1.26846
thorax -8.59125 -1.33281 0.847349
lowerneck 8.34183 -4.88314 -1.2618
upperneck -3.03383 -6.94646 -4.77123
head -2.54972 -3.29971 -0.979386
rclavicle -1.11319e-014 4.77083e-015
rhumerus -46.7154 11.7386 -81.7114
rradius 34.6686
rwrist 3.50962
rhand -10.0576 -2.79509
rfingers 7.12502
rthumb 15.9282 -32.1601
lclavicle -1.11319e-014 4.77083e-015
lhumerus -46.4941 -16.4312 80.8251
lradius 43.6663
lwrist 17.8502
lhand 16.54 8.63814
lfingers 7.12502
lthumb 41.2992 33.4587
rfemur -28.7697 -10.425 14.5362
rtibia 63.4261
rfoot 0.425321 -19.2649
rtoes 9.57873
lfemur 14.2225 14.5072 -14.7739
ltibia -9.54166e-015
lfoot -8.7656 6.05941
ltoes 3.24702
2114
root 1.15494 16.7045 -1.33634 54.761 -84.6895 -60.6811
lowerback 7.55255 -1.85798 -3.15106
upperback -4.20334 -2.99044 -1.29324
thorax -8.60349 -1.33285 0.843357
lowerneck 8.28224 -4.96782 -1.36936
upperneck -2.93628 -7.05831 -4.68221
head -2.49908 -3.35999 -0.929667
rclavicle 4.59193e-014 2.38542e-014
rhumerus -46.787 11.7943 -81.7515
rradius 34.6065
rwrist 3.53518
rhand -9.98865 -2.79438
rfingers 7.12502
rthumb 15.9946 -32.1541
lclavicle 4.59193e-014 2.38542e-014
lhumerus -46.4802 -16.4914 80.7549
lradius 43.6117
lwrist 17.8436
lhand 16.5109 8.63033
lfingers 7.12502
lthumb 41.2719 33.4597
rfemur -28.9968 -10.7162 14.7015
rtibia 63.4485
rfoot -0.516872 -19.1168
rtoes 8.94309
lfemur 14.311 14.4955 -14.7377
ltibia 4.77083e-014
lfoot -8.80104 5.94819
ltoes 3.17439
2115
root 1.14135 16.7042 -1.32429 53.8942 -84.5778 -59.8631
lowerback 7.56338 -1.85577 -3.171
upperback -4.22317 -2.99331 -1.31455
thorax -8.63166 -1.33335 0.833209
lowerneck 8.22339 -5.05209 -1.47459
upperneck -2.83557 -7.16918 -4.59278
head -2.44748 -3.41991 -0.880642
rclavicle -1.72943e-014 4.77083e-015
rhumerus -46.8721 11.8592 -81.795
rradius 34.5418
rwrist 3.55642
rhand -9.92079 -2.78707
rfingers 7.12502
rthumb 16.0599 -32.1415
lclavicle -1.72943e-014 4.77083e-015
lhumerus -46.4852 -16.5467 80.693
lradius 43.5632
lwrist 17.8377
lhand 16.4748 8.62171
lfingers 7.12502
lthumb 41.238 33.462
rfemur -29.1729 -10.9876 14.88
rtibia 63.3807
rfoot -1.40872 -18.9269
rtoes 8.14057
lfemur 14.4112 14.4755 -14.6878
ltibia 1.11319e-014
lfoot -8.84147 5.83625
ltoes 3.10057
2116
root 1.12668 16.7035 -1.3125 53.1045 -84.4557 -59.121
lowerback 7.58059 -1.85288 -3.17714
upperback -4.25102 -2.99397 -1.33114
thorax -8.67276 -1.33313 0.820437
lowerneck 8.17134 -5.13905 -1.57456
upperneck -2.74093 -7.28386 -4.50819
head -2.39959 -3.48139 -0.833961
rclavicle -1.66979e-014 6.36111e-015
rhumerus -46.9669 11.9309 -81.8387
rradius 34.476
rwrist 3.57829
rhand -9.85847 -2.77871
rfingers 7.12502
rthumb 16.1199 -32.1283
lclavicle -1.66979e-014 6.36111e-015
lhumerus -46.5089 -16.594 80.639
lradius 43.5228
lwrist 17.8302
lhand 16.439 8.61877
lfingers 7.12502
lthumb 41.2044 33.4698
rfemur -29.3077 -11.2286 15.072
rtibia 63.2243
rfoot -2.21132 -18.692
rtoes 7.21538
lfemur 14.5165 14.4527 -14.6255
ltibia -2.54444e-014
lfoot -8.88748 5.72595
ltoes 3.0151
